<?xml version="1.0" encoding="utf-8"?>
<!-- Generator: Adobe Illustrator 17.0.0, SVG Export Plug-In . SVG Version: 6.00 Build 0)  -->
<!DOCTYPE svg PUBLIC "-//W3C//DTD SVG 1.1//EN" "http://www.w3.org/Graphics/SVG/1.1/DTD/svg11.dtd">
<svg version="1.1" id="图层_3" xmlns="http://www.w3.org/2000/svg" xmlns:xlink="http://www.w3.org/1999/xlink" x="0px" y="0px"
	 width="1024px" height="1024px" viewBox="0 0 1024 1024" enable-background="new 0 0 1024 1024" xml:space="preserve">
<g>
	<path d="M297.161,347.869h296.365c21.15,0,38.303-17.153,38.303-38.303c0-21.155-17.153-38.303-38.303-38.303H297.161
		c-21.15,0-38.303,17.148-38.303,38.303C258.859,330.716,276.011,347.869,297.161,347.869z"/>
	<path d="M297.161,525.688h453.352c21.15,0,38.303-17.148,38.303-38.303c0-21.15-17.153-38.303-38.303-38.303H297.161
		c-21.15,0-38.303,17.153-38.303,38.303C258.859,508.54,276.011,525.688,297.161,525.688z"/>
	<path d="M947.414,42.491H76.588C35.459,42.491,2,75.52,2,116.104v564.78c0,40.587,33.459,73.613,74.588,73.613h397.109v150.406
		H273.486c-21.155,0-38.303,17.15-38.303,38.303s17.148,38.303,38.303,38.303h477.027c21.15,0,38.303-17.15,38.303-38.303
		s-17.153-38.303-38.303-38.303H550.303V754.497h397.111c41.125,0,74.586-33.026,74.586-73.613v-564.78
		C1022,75.52,988.539,42.491,947.414,42.491z M945.394,677.892l-866.789,2.992l-2.018-561.787l868.806-2.992V677.892z"/>
</g>
</svg>
