<?xml version="1.0" encoding="utf-8"?>
<!-- Generator: Adobe Illustrator 17.0.0, SVG Export Plug-In . SVG Version: 6.00 Build 0)  -->
<!DOCTYPE svg PUBLIC "-//W3C//DTD SVG 1.1//EN" "http://www.w3.org/Graphics/SVG/1.1/DTD/svg11.dtd">
<svg version="1.1" id="图层_3" xmlns="http://www.w3.org/2000/svg" xmlns:xlink="http://www.w3.org/1999/xlink" x="0px" y="0px"
	 width="1024px" height="1024px" viewBox="0 0 1024 1024" enable-background="new 0 0 1024 1024" xml:space="preserve">
<path fill-rule="evenodd" clip-rule="evenodd" d="M923.575,872.765H638.85L511.739,999.877L384.624,872.765H99.899
	c-52.487,0-95.039-42.552-95.039-95.039V144.128c0-52.487,42.552-95.039,95.039-95.039h823.676
	c52.487,0,95.036,42.552,95.036,95.039v633.598C1018.611,830.213,976.062,872.765,923.575,872.765z M955.255,175.811
	c0-34.993-28.369-63.359-63.363-63.359h-760.31c-34.997,0-63.363,28.366-63.363,63.359v570.235c0,34.99,28.366,63.356,63.363,63.356
	h284.725l95.432,95.432l95.429-95.432h284.725c34.993,0,63.363-28.366,63.363-63.356V175.811z M796.856,365.886H226.621
	c-17.497,0-31.68-14.18-31.68-31.677c0-17.497,14.183-31.683,31.68-31.683h570.235c17.497,0,31.68,14.186,31.68,31.683
	C828.536,351.706,814.353,365.886,796.856,365.886z M353.337,492.608h316.801c17.494,0,31.677,14.183,31.677,31.68
	c0,17.494-14.183,31.68-31.677,31.68H353.337c-17.494,0-31.677-14.186-31.677-31.68C321.66,506.791,335.843,492.608,353.337,492.608
	z"/>
</svg>
