<?xml version="1.0" encoding="utf-8"?>
<!-- Generator: Adobe Illustrator 17.0.0, SVG Export Plug-In . SVG Version: 6.00 Build 0)  -->
<!DOCTYPE svg PUBLIC "-//W3C//DTD SVG 1.1//EN" "http://www.w3.org/Graphics/SVG/1.1/DTD/svg11.dtd">
<svg version="1.1" id="图层_2" xmlns="http://www.w3.org/2000/svg" xmlns:xlink="http://www.w3.org/1999/xlink" x="0px" y="0px"
	 width="1024px" height="1024px" viewBox="0 0 1024 1024" enable-background="new 0 0 1024 1024" xml:space="preserve">
<g>
	<path fill="#231815" d="M561.069,554.341C645.846,510.362,704,421.919,704,320c0-145.57-118.43-264-264-264S176,174.43,176,320
		c0,101.919,58.154,190.362,142.931,234.341C152.885,606.039,32,761.161,32,944c0,13.266,10.746,24,24,24s24-10.734,24-24
		c0-198.516,161.496-360,360-360c198.516,0,360,161.484,360,360c0,13.266,10.734,24,24,24s24-10.734,24-24
		C848,761.161,727.115,606.039,561.069,554.341z M224,320c0-119.098,96.902-216,216-216c119.109,0,216,96.902,216,216
		s-96.891,216-216,216C320.902,536,224,439.098,224,320z"/>
	<path fill="#231815" d="M778.297,532.555C823.414,471.008,848,396.512,848,320c0-70.242-20.25-138.328-58.57-196.91
		c-7.266-11.109-22.148-14.203-33.234-6.949s-14.203,22.125-6.938,33.223C782.445,200.117,800,259.121,800,320
		c0,74.062-26.602,145.969-74.906,202.465c-4.547,5.309-6.539,12.293-5.484,19.207c1.031,6.891,5.016,12.984,10.922,16.688
		C864.195,642.617,944,786.781,944,944c0,13.266,10.734,24,24,24s24-10.734,24-24C992,779.07,912.617,627.172,778.297,532.555z"/>
	<path fill="#231815" d="M579.805,356.68c-6.234-2.133-13.078,1.066-15.328,7.324C545.891,416.633,495.863,452,440,452
		c-55.84,0-105.855-35.344-124.477-87.949c-2.191-6.234-9.059-9.48-15.316-7.301c-6.246,2.203-9.516,9.059-7.301,15.316
		C314.902,434.234,374.012,476,440,476c66.012,0,125.133-41.801,147.117-104.004C589.32,365.75,586.039,358.895,579.805,356.68z"/>
</g>
</svg>
