<?xml version="1.0" encoding="utf-8"?>
<!-- Generator: Adobe Illustrator 17.0.0, SVG Export Plug-In . SVG Version: 6.00 Build 0)  -->
<!DOCTYPE svg PUBLIC "-//W3C//DTD SVG 1.1//EN" "http://www.w3.org/Graphics/SVG/1.1/DTD/svg11.dtd">
<svg version="1.1" id="图层_2" xmlns="http://www.w3.org/2000/svg" xmlns:xlink="http://www.w3.org/1999/xlink" x="0px" y="0px"
	 width="1024px" height="1024px" viewBox="0 0 1024 1024" enable-background="new 0 0 1024 1024" xml:space="preserve">
<g>
	<path fill="#231815" d="M984.969,560.896L528.974,104.89c-9-9-24.949-9-33.949,0L39.031,560.896
		c-9.375,9.375-9.375,24.562,0,33.937c4.687,4.687,10.828,7.031,16.969,7.031s12.281-2.344,16.969-7.031l439.026-439.038
		l439.038,439.038c9.375,9.375,24.562,9.375,33.937,0C994.344,585.458,994.344,570.271,984.969,560.896z"/>
	<path fill="#231815" d="M533.217,429.226c2.953-12.914-5.18-25.511-18.105-28.465c-12.047-2.812-24.211,4.371-28.136,15.902
		L384.179,703.793c-2.637,7.336-1.523,15.515,2.965,21.914c4.5,6.375,11.824,10.172,19.629,10.172H622.77c13.265,0,24-10.734,24-24
		s-10.734-24-24-24H440.862l91.417-255.36C532.607,431.628,533.006,430.151,533.217,429.226z"/>
	<path fill="#231815" d="M812.002,589.864c-13.265,0-24,10.734-24,24v131.998c0,64.874-40.406,131.998-107.999,131.998H344.008
		c-66.62,0-131.998-65.39-131.998-131.998V613.864c0-13.266-10.746-24-24-24c-13.254,0-24,10.734-24,24v131.998
		c0,92.53,87.479,179.998,179.998,179.998h335.996c97.639,0,155.998-91.522,155.998-179.998V613.864
		C836.002,600.599,825.268,589.864,812.002,589.864z"/>
</g>
</svg>
