<?xml version="1.0" encoding="utf-8"?>
<!-- Generator: Adobe Illustrator 17.0.0, SVG Export Plug-In . SVG Version: 6.00 Build 0)  -->
<!DOCTYPE svg PUBLIC "-//W3C//DTD SVG 1.1//EN" "http://www.w3.org/Graphics/SVG/1.1/DTD/svg11.dtd">
<svg version="1.1" id="图层_2" xmlns="http://www.w3.org/2000/svg" xmlns:xlink="http://www.w3.org/1999/xlink" x="0px" y="0px"
	 width="1024px" height="1024px" viewBox="0 0 1024 1024" enable-background="new 0 0 1024 1024" xml:space="preserve">
<g>
	<path fill="#231815" d="M649.672,611.492c6.305-11.648,1.969-26.203-9.703-32.531c-23.259-12.583-47.767-22.746-73.025-30.56
		C651.787,504.443,710,415.969,710,314c0-145.57-118.43-264-264-264S182,168.43,182,314c0,101.919,58.154,190.362,142.931,234.341
		C158.885,600.039,38,755.161,38,938c0,13.266,10.746,24,24,24s24-10.734,24-24c0-198.516,161.496-360,360-360
		c59.754,0,118.922,14.93,171.141,43.195C628.766,627.453,643.344,623.164,649.672,611.492z M230,314c0-119.098,96.902-216,216-216
		c119.109,0,216,96.902,216,216s-96.891,216-216,216C326.902,530,230,433.098,230,314z"/>
	<path fill="#231815" d="M585.805,350.68c-6.234-2.133-13.078,1.066-15.328,7.324C551.891,410.633,501.863,446,446,446
		c-55.84,0-105.855-35.344-124.477-87.949c-2.191-6.234-9.059-9.48-15.316-7.301c-6.246,2.203-9.516,9.059-7.301,15.316
		C320.902,428.234,380.012,470,446,470c66.012,0,125.133-41.801,147.117-104.004C595.32,359.75,592.039,352.895,585.805,350.68z"/>
	<path fill="#231815" d="M925.684,687.181C922.426,591.375,876.255,530,806,530c-68.848,0-115.912,62.235-119.635,156H674
		c-39.703,0-72,32.297-72,72v144c0,39.703,32.297,72,72,72h240c39.703,0,72-32.297,72-72V758
		C986,722.297,959.817,692.807,925.684,687.181z M806,578c49.436,0,69.215,53.761,71.706,108H734.319
		C737.126,630.453,759.6,578,806,578z M938,902c0,13.242-10.758,24-24,24H674c-13.242,0-24-10.758-24-24V758
		c0-13.242,10.758-24,24-24h240c13.242,0,24,10.758,24,24V902z"/>
	<path fill="#231815" d="M794,782c-13.266,0-24,10.734-24,24v48c0,13.266,10.734,24,24,24s24-10.734,24-24v-48
		C818,792.734,807.266,782,794,782z"/>
</g>
</svg>
