<?xml version="1.0" encoding="utf-8"?>
<!-- Generator: Adobe Illustrator 18.1.0, SVG Export Plug-In . SVG Version: 6.00 Build 0)  -->
<svg version="1.1" id="图层_1" xmlns="http://www.w3.org/2000/svg" xmlns:xlink="http://www.w3.org/1999/xlink" x="0px" y="0px"
	 width="1024px" height="1024px" viewBox="0 0 1024 1024" enable-background="new 0 0 1024 1024" xml:space="preserve">
<path fill="#ED7519" d="M769.654,1024H68.455C30.704,1024,0,992.287,0,953.312V242.029c0-38.974,30.704-70.669,68.455-70.669
	h301.852v37.456H68.455c-17.742,0-32.191,14.906-32.191,33.213v711.283c0,18.326,14.449,33.231,32.191,33.231h701.199
	c17.742,0,32.174-14.906,32.174-33.231v-306.91h36.264v306.91C838.092,992.287,807.388,1024,769.654,1024z"/>
<g>
	<polygon fill="#ED7519" points="897.446,276.34 755.435,129.661 781.075,103.178 923.085,249.857 	"/>
	<path fill="#ED7519" d="M215.282,834.671l31.306-239.826L798.941,24.882c32.085-33.177,88.199-33.177,120.319,0l79.876,82.484
		c33.148,34.256,33.148,90.001,0.018,124.275L447.049,801.878L215.282,834.671z M280.904,612.403l-23.302,178.484l172.449-24.416
		l543.447-561.312c19.017-19.661,19.017-51.649,0-71.309l-79.876-82.484c-18.451-19.021-50.624-19.021-69.04,0L280.904,612.403z"/>
</g>
</svg>
