<?xml version="1.0" encoding="utf-8"?>
<!-- Generator: Adobe Illustrator 17.0.0, SVG Export Plug-In . SVG Version: 6.00 Build 0)  -->
<!DOCTYPE svg PUBLIC "-//W3C//DTD SVG 1.1//EN" "http://www.w3.org/Graphics/SVG/1.1/DTD/svg11.dtd">
<svg version="1.1" id="图层_2" xmlns="http://www.w3.org/2000/svg" xmlns:xlink="http://www.w3.org/1999/xlink" x="0px" y="0px"
	 width="1024px" height="1024px" viewBox="0 0 1024 1024" enable-background="new 0 0 1024 1024" xml:space="preserve">
<path fill="#231815" d="M991.548,154.817c0.176-1.418,0.429-2.802,0.354-4.207c-0.063-1.214-0.41-2.377-0.661-3.584
	c-0.325-1.551-0.642-3.061-1.264-4.518c-0.157-0.369-0.139-0.766-0.316-1.131c-0.379-0.782-1.036-1.311-1.488-2.033
	c-0.82-1.321-1.655-2.578-2.73-3.729c-0.945-1.011-1.985-1.821-3.075-2.644c-0.712-0.542-1.228-1.263-2.011-1.73
	c-0.464-0.275-0.992-0.318-1.468-0.56c-1.235-0.631-2.502-1.049-3.829-1.459c-1.355-0.416-2.667-0.788-4.055-0.958
	c-1.28-0.16-2.533-0.136-3.839-0.086c-1.526,0.059-2.987,0.217-4.475,0.562c-0.605,0.141-1.21,0.038-1.811,0.227L48.9,415.09
	c-8.637,2.707-15.012,10.031-16.488,18.961c-1.488,8.918,2.168,17.918,9.457,23.273l230.939,169.733l41.039,229.264
	c1.406,7.852,6.621,14.508,13.91,17.719c3.105,1.383,6.41,2.062,9.715,2.062c4.441,0,8.871-1.242,12.75-3.68l91.042-57.117
	c11.238-7.031,14.625-21.844,7.582-33.07c-7.043-11.25-21.867-14.695-33.082-7.57l-60.937,38.203L321.1,624.432l487.954-334.471
	l-350.13,382.283c-4.57,4.992-6.82,11.672-6.199,18.398c0.609,6.727,4.031,12.891,9.422,16.969l242.728,183.397
	c4.219,3.187,9.305,4.852,14.461,4.852c2.344,0,4.687-0.352,6.984-1.031c7.359-2.25,13.195-7.875,15.703-15.141l248.74-719.982
	c0.101-0.294,0.054-0.599,0.144-0.895C991.305,157.505,991.377,156.172,991.548,154.817z M295.226,583.956l-186.76-137.249
	L822.131,222.81L295.226,583.956z M707.429,832.79L512.138,685.228l395.446-431.797L707.429,832.79z"/>
</svg>
