<?xml version="1.0" encoding="utf-8"?>
<!-- Generator: Adobe Illustrator 16.0.0, SVG Export Plug-In . SVG Version: 6.00 Build 0)  -->
<!DOCTYPE svg PUBLIC "-//W3C//DTD SVG 1.1//EN" "http://www.w3.org/Graphics/SVG/1.1/DTD/svg11.dtd">
<svg version="1.1" id="图层_1" xmlns="http://www.w3.org/2000/svg" xmlns:xlink="http://www.w3.org/1999/xlink" x="0px" y="0px"
	 width="595.28px" height="841.89px" viewBox="0 0 595.28 841.89" enable-background="new 0 0 595.28 841.89" xml:space="preserve">
<g>
	<path d="M290.88,568.333h-17.173c-4.263-23.165-6.39-41.4-6.39-54.716c0-58.313,18.104-101.646,54.316-130.003
		c36.208-28.356,59.373-48.657,69.495-60.906c10.115-12.245,15.176-27.159,15.176-44.732c0-21.03-9.185-39.403-27.557-55.116
		c-18.373-15.708-41.405-23.564-69.095-23.564c-25.83,0-47.129,6.59-63.903,19.77c-16.774,13.181-25.162,24.563-25.162,34.148
		c0,3.994,5.124,6.259,15.377,6.79c10.246,0.537,18.97,4.73,26.16,12.581c7.189,7.857,10.784,16.712,10.784,26.559
		c0,10.653-3.932,19.708-11.782,27.159c-7.857,7.458-17.243,11.183-28.157,11.183c-12.781,0-23.365-4.325-31.752-12.98
		c-8.387-8.649-12.581-21.767-12.581-39.34c0-28.487,11.783-53.05,35.347-73.688c23.563-20.631,52.12-30.953,85.67-30.953
		c42.335,0,76.083,14.446,101.245,43.334c25.161,28.893,37.742,61.706,37.742,98.45c0,27.694-6.658,52.257-19.97,73.688
		c-13.317,21.437-41.804,47.196-85.469,77.281c-35.946,25.3-53.918,50.192-53.918,74.687
		C289.283,554.892,289.813,561.68,290.88,568.333z M240.956,681.36c0-13.841,4.855-25.624,14.578-35.346
		c9.717-9.717,21.499-14.578,35.346-14.578c13.842,0,25.762,4.861,35.746,14.578c9.984,9.722,14.978,21.505,14.978,35.346
		c0,14.116-4.93,26.099-14.777,35.945c-9.854,9.848-21.836,14.778-35.946,14.778c-13.847,0-25.629-4.993-35.346-14.978
		C245.811,707.121,240.956,695.208,240.956,681.36z"/>
</g>
</svg>
